<mxfile host="app.diagrams.net" modified="2024-02-10T10:01:52.814Z" agent="Mozilla/5.0 (Windows NT 10.0; Win64; x64) AppleWebKit/537.36 (KHTML, like Gecko) Chrome/121.0.0.0 Safari/537.36" etag="IayuV4LHWQ6h8sQv2zTO" version="23.1.1" type="device">
  <diagram id="C5RBs43oDa-KdzZeNtuy" name="Page-1">
    <mxGraphModel dx="1088" dy="1931" grid="1" gridSize="10" guides="1" tooltips="1" connect="1" arrows="1" fold="1" page="1" pageScale="1" pageWidth="827" pageHeight="1169" math="0" shadow="0">
      <root>
        <mxCell id="WIyWlLk6GJQsqaUBKTNV-0" />
        <mxCell id="WIyWlLk6GJQsqaUBKTNV-1" parent="WIyWlLk6GJQsqaUBKTNV-0" />
        <mxCell id="z7gZZNwkyZD44I_29zTt-2" value="Пользователь" style="swimlane;whiteSpace=wrap;html=1;" vertex="1" parent="WIyWlLk6GJQsqaUBKTNV-1">
          <mxGeometry x="50" y="-280" width="470" height="980" as="geometry" />
        </mxCell>
        <mxCell id="z7gZZNwkyZD44I_29zTt-4" value="Группа (действия бота в группе)" style="swimlane;whiteSpace=wrap;html=1;" vertex="1" parent="WIyWlLk6GJQsqaUBKTNV-1">
          <mxGeometry x="990" y="-280" width="400" height="990" as="geometry" />
        </mxCell>
        <mxCell id="z7gZZNwkyZD44I_29zTt-16" value="Бот" style="swimlane;whiteSpace=wrap;html=1;" vertex="1" parent="WIyWlLk6GJQsqaUBKTNV-1">
          <mxGeometry x="520" y="-280" width="470" height="980" as="geometry" />
        </mxCell>
        <mxCell id="z7gZZNwkyZD44I_29zTt-17" value="Админ" style="swimlane;whiteSpace=wrap;html=1;" vertex="1" parent="WIyWlLk6GJQsqaUBKTNV-1">
          <mxGeometry x="1390" y="-280" width="400" height="990" as="geometry" />
        </mxCell>
        <mxCell id="z7gZZNwkyZD44I_29zTt-19" value="Пользователь" style="shape=umlActor;verticalLabelPosition=bottom;verticalAlign=top;html=1;outlineConnect=0;" vertex="1" parent="WIyWlLk6GJQsqaUBKTNV-1">
          <mxGeometry x="70" y="-940" width="30" height="60" as="geometry" />
        </mxCell>
        <mxCell id="z7gZZNwkyZD44I_29zTt-20" value="Админ" style="shape=umlActor;verticalLabelPosition=bottom;verticalAlign=top;html=1;outlineConnect=0;" vertex="1" parent="WIyWlLk6GJQsqaUBKTNV-1">
          <mxGeometry x="740" y="-930" width="30" height="60" as="geometry" />
        </mxCell>
        <mxCell id="z7gZZNwkyZD44I_29zTt-22" value="Бот" style="shape=umlActor;verticalLabelPosition=bottom;verticalAlign=top;html=1;outlineConnect=0;" vertex="1" parent="WIyWlLk6GJQsqaUBKTNV-1">
          <mxGeometry x="460" y="-1060" width="30" height="60" as="geometry" />
        </mxCell>
        <mxCell id="z7gZZNwkyZD44I_29zTt-23" value="Бот в группе" style="shape=umlActor;verticalLabelPosition=bottom;verticalAlign=top;html=1;outlineConnect=0;" vertex="1" parent="WIyWlLk6GJQsqaUBKTNV-1">
          <mxGeometry x="480" y="-604" width="30" height="60" as="geometry" />
        </mxCell>
        <mxCell id="z7gZZNwkyZD44I_29zTt-24" value="Сгенерировать ссылку" style="ellipse;whiteSpace=wrap;html=1;" vertex="1" parent="WIyWlLk6GJQsqaUBKTNV-1">
          <mxGeometry x="200" y="-1110" width="110" height="70" as="geometry" />
        </mxCell>
        <mxCell id="z7gZZNwkyZD44I_29zTt-28" value="" style="endArrow=none;html=1;rounded=0;exitX=1;exitY=0.3333333333333333;exitDx=0;exitDy=0;exitPerimeter=0;" edge="1" parent="WIyWlLk6GJQsqaUBKTNV-1" source="z7gZZNwkyZD44I_29zTt-19" target="z7gZZNwkyZD44I_29zTt-24">
          <mxGeometry width="50" height="50" relative="1" as="geometry">
            <mxPoint x="160" y="-910" as="sourcePoint" />
            <mxPoint x="210" y="-960" as="targetPoint" />
          </mxGeometry>
        </mxCell>
        <mxCell id="z7gZZNwkyZD44I_29zTt-29" value="" style="endArrow=none;html=1;rounded=0;exitX=1;exitY=0.5;exitDx=0;exitDy=0;entryX=0;entryY=0.3333333333333333;entryDx=0;entryDy=0;entryPerimeter=0;" edge="1" parent="WIyWlLk6GJQsqaUBKTNV-1" source="z7gZZNwkyZD44I_29zTt-24" target="z7gZZNwkyZD44I_29zTt-22">
          <mxGeometry width="50" height="50" relative="1" as="geometry">
            <mxPoint x="150" y="-900" as="sourcePoint" />
            <mxPoint x="227" y="-950" as="targetPoint" />
          </mxGeometry>
        </mxCell>
        <mxCell id="z7gZZNwkyZD44I_29zTt-30" value="Посмотреть информацию о приглашенных" style="ellipse;whiteSpace=wrap;html=1;" vertex="1" parent="WIyWlLk6GJQsqaUBKTNV-1">
          <mxGeometry x="220" y="-1030" width="110" height="70" as="geometry" />
        </mxCell>
        <mxCell id="z7gZZNwkyZD44I_29zTt-31" value="" style="endArrow=none;html=1;rounded=0;exitX=1;exitY=0.3333333333333333;exitDx=0;exitDy=0;exitPerimeter=0;entryX=0;entryY=0.5;entryDx=0;entryDy=0;" edge="1" parent="WIyWlLk6GJQsqaUBKTNV-1" source="z7gZZNwkyZD44I_29zTt-19" target="z7gZZNwkyZD44I_29zTt-30">
          <mxGeometry width="50" height="50" relative="1" as="geometry">
            <mxPoint x="150" y="-900" as="sourcePoint" />
            <mxPoint x="227" y="-950" as="targetPoint" />
          </mxGeometry>
        </mxCell>
        <mxCell id="z7gZZNwkyZD44I_29zTt-32" value="" style="endArrow=none;html=1;rounded=0;entryX=0;entryY=0.3333333333333333;entryDx=0;entryDy=0;entryPerimeter=0;" edge="1" parent="WIyWlLk6GJQsqaUBKTNV-1" source="z7gZZNwkyZD44I_29zTt-30" target="z7gZZNwkyZD44I_29zTt-22">
          <mxGeometry width="50" height="50" relative="1" as="geometry">
            <mxPoint x="320" y="-975" as="sourcePoint" />
            <mxPoint x="470" y="-1030" as="targetPoint" />
          </mxGeometry>
        </mxCell>
        <mxCell id="z7gZZNwkyZD44I_29zTt-33" value="Получить заново ссылку(ту же)" style="ellipse;whiteSpace=wrap;html=1;" vertex="1" parent="WIyWlLk6GJQsqaUBKTNV-1">
          <mxGeometry x="210" y="-940" width="110" height="70" as="geometry" />
        </mxCell>
        <mxCell id="z7gZZNwkyZD44I_29zTt-34" value="" style="endArrow=none;html=1;rounded=0;exitX=1;exitY=0.3333333333333333;exitDx=0;exitDy=0;exitPerimeter=0;entryX=-0.001;entryY=0.377;entryDx=0;entryDy=0;entryPerimeter=0;" edge="1" parent="WIyWlLk6GJQsqaUBKTNV-1" source="z7gZZNwkyZD44I_29zTt-19" target="z7gZZNwkyZD44I_29zTt-33">
          <mxGeometry width="50" height="50" relative="1" as="geometry">
            <mxPoint x="150" y="-900" as="sourcePoint" />
            <mxPoint x="240" y="-885" as="targetPoint" />
          </mxGeometry>
        </mxCell>
        <mxCell id="z7gZZNwkyZD44I_29zTt-35" value="" style="endArrow=none;html=1;rounded=0;exitX=0;exitY=0.3333333333333333;exitDx=0;exitDy=0;exitPerimeter=0;entryX=1;entryY=0.5;entryDx=0;entryDy=0;" edge="1" parent="WIyWlLk6GJQsqaUBKTNV-1" source="z7gZZNwkyZD44I_29zTt-22" target="z7gZZNwkyZD44I_29zTt-33">
          <mxGeometry width="50" height="50" relative="1" as="geometry">
            <mxPoint x="150" y="-900" as="sourcePoint" />
            <mxPoint x="220" y="-814" as="targetPoint" />
          </mxGeometry>
        </mxCell>
        <mxCell id="z7gZZNwkyZD44I_29zTt-36" value="Отследиь вход в группу" style="ellipse;whiteSpace=wrap;html=1;" vertex="1" parent="WIyWlLk6GJQsqaUBKTNV-1">
          <mxGeometry x="350" y="-680" width="110" height="70" as="geometry" />
        </mxCell>
        <mxCell id="z7gZZNwkyZD44I_29zTt-37" value="***Отследить выход из группы" style="ellipse;whiteSpace=wrap;html=1;" vertex="1" parent="WIyWlLk6GJQsqaUBKTNV-1">
          <mxGeometry x="490" y="-690" width="110" height="70" as="geometry" />
        </mxCell>
        <mxCell id="z7gZZNwkyZD44I_29zTt-38" value="" style="endArrow=none;html=1;rounded=0;exitX=0.5;exitY=1;exitDx=0;exitDy=0;entryX=0;entryY=0.3333333333333333;entryDx=0;entryDy=0;entryPerimeter=0;" edge="1" parent="WIyWlLk6GJQsqaUBKTNV-1" source="z7gZZNwkyZD44I_29zTt-36" target="z7gZZNwkyZD44I_29zTt-23">
          <mxGeometry width="50" height="50" relative="1" as="geometry">
            <mxPoint x="540" y="-990" as="sourcePoint" />
            <mxPoint x="400" y="-775" as="targetPoint" />
          </mxGeometry>
        </mxCell>
        <mxCell id="z7gZZNwkyZD44I_29zTt-39" value="" style="endArrow=none;html=1;rounded=0;exitX=0.5;exitY=1;exitDx=0;exitDy=0;entryX=1;entryY=0.3333333333333333;entryDx=0;entryDy=0;entryPerimeter=0;" edge="1" parent="WIyWlLk6GJQsqaUBKTNV-1" source="z7gZZNwkyZD44I_29zTt-37" target="z7gZZNwkyZD44I_29zTt-23">
          <mxGeometry width="50" height="50" relative="1" as="geometry">
            <mxPoint x="415" y="-600" as="sourcePoint" />
            <mxPoint x="490" y="-574" as="targetPoint" />
          </mxGeometry>
        </mxCell>
        <mxCell id="z7gZZNwkyZD44I_29zTt-40" value="Посмотреть информацию об участнике группы&amp;nbsp;" style="ellipse;whiteSpace=wrap;html=1;" vertex="1" parent="WIyWlLk6GJQsqaUBKTNV-1">
          <mxGeometry x="560" y="-1020" width="140" height="80" as="geometry" />
        </mxCell>
        <mxCell id="z7gZZNwkyZD44I_29zTt-41" value="" style="endArrow=none;html=1;rounded=0;exitX=1;exitY=0.3333333333333333;exitDx=0;exitDy=0;exitPerimeter=0;entryX=0;entryY=0;entryDx=0;entryDy=0;" edge="1" parent="WIyWlLk6GJQsqaUBKTNV-1" source="z7gZZNwkyZD44I_29zTt-22" target="z7gZZNwkyZD44I_29zTt-40">
          <mxGeometry width="50" height="50" relative="1" as="geometry">
            <mxPoint x="470" y="-1030" as="sourcePoint" />
            <mxPoint x="330" y="-815" as="targetPoint" />
          </mxGeometry>
        </mxCell>
        <mxCell id="z7gZZNwkyZD44I_29zTt-42" value="" style="endArrow=none;html=1;rounded=0;exitX=0;exitY=0.3333333333333333;exitDx=0;exitDy=0;exitPerimeter=0;entryX=1;entryY=1;entryDx=0;entryDy=0;" edge="1" parent="WIyWlLk6GJQsqaUBKTNV-1" source="z7gZZNwkyZD44I_29zTt-20" target="z7gZZNwkyZD44I_29zTt-40">
          <mxGeometry width="50" height="50" relative="1" as="geometry">
            <mxPoint x="500" y="-1030" as="sourcePoint" />
            <mxPoint x="608" y="-988" as="targetPoint" />
          </mxGeometry>
        </mxCell>
        <mxCell id="z7gZZNwkyZD44I_29zTt-43" value="Изменить данные участника" style="ellipse;whiteSpace=wrap;html=1;" vertex="1" parent="WIyWlLk6GJQsqaUBKTNV-1">
          <mxGeometry x="550" y="-920" width="130" height="80" as="geometry" />
        </mxCell>
        <mxCell id="z7gZZNwkyZD44I_29zTt-44" value="" style="endArrow=none;html=1;rounded=0;entryX=0;entryY=0;entryDx=0;entryDy=0;" edge="1" parent="WIyWlLk6GJQsqaUBKTNV-1" target="z7gZZNwkyZD44I_29zTt-43">
          <mxGeometry width="50" height="50" relative="1" as="geometry">
            <mxPoint x="490" y="-1040" as="sourcePoint" />
            <mxPoint x="591" y="-998" as="targetPoint" />
          </mxGeometry>
        </mxCell>
        <mxCell id="z7gZZNwkyZD44I_29zTt-45" value="" style="endArrow=none;html=1;rounded=0;entryX=0;entryY=0.3333333333333333;entryDx=0;entryDy=0;exitX=1;exitY=0.5;exitDx=0;exitDy=0;entryPerimeter=0;" edge="1" parent="WIyWlLk6GJQsqaUBKTNV-1" source="z7gZZNwkyZD44I_29zTt-43" target="z7gZZNwkyZD44I_29zTt-20">
          <mxGeometry width="50" height="50" relative="1" as="geometry">
            <mxPoint x="500" y="-1030" as="sourcePoint" />
            <mxPoint x="579" y="-883" as="targetPoint" />
          </mxGeometry>
        </mxCell>
        <mxCell id="z7gZZNwkyZD44I_29zTt-46" value="*Получить тексты для приглашения" style="ellipse;whiteSpace=wrap;html=1;" vertex="1" parent="WIyWlLk6GJQsqaUBKTNV-1">
          <mxGeometry x="190" y="-860" width="110" height="70" as="geometry" />
        </mxCell>
        <mxCell id="z7gZZNwkyZD44I_29zTt-47" value="" style="endArrow=none;html=1;rounded=0;entryX=0;entryY=0.5;entryDx=0;entryDy=0;" edge="1" parent="WIyWlLk6GJQsqaUBKTNV-1" target="z7gZZNwkyZD44I_29zTt-46">
          <mxGeometry width="50" height="50" relative="1" as="geometry">
            <mxPoint x="100" y="-920" as="sourcePoint" />
            <mxPoint x="220" y="-864" as="targetPoint" />
          </mxGeometry>
        </mxCell>
        <mxCell id="z7gZZNwkyZD44I_29zTt-48" value="" style="endArrow=none;html=1;rounded=0;entryX=1;entryY=0.5;entryDx=0;entryDy=0;" edge="1" parent="WIyWlLk6GJQsqaUBKTNV-1" target="z7gZZNwkyZD44I_29zTt-46">
          <mxGeometry width="50" height="50" relative="1" as="geometry">
            <mxPoint x="460" y="-1040" as="sourcePoint" />
            <mxPoint x="330" y="-855" as="targetPoint" />
          </mxGeometry>
        </mxCell>
        <mxCell id="z7gZZNwkyZD44I_29zTt-49" value="*Узнать инфу о розыгрышах и подарках" style="ellipse;whiteSpace=wrap;html=1;" vertex="1" parent="WIyWlLk6GJQsqaUBKTNV-1">
          <mxGeometry x="160" y="-770" width="110" height="70" as="geometry" />
        </mxCell>
        <mxCell id="z7gZZNwkyZD44I_29zTt-50" value="" style="endArrow=none;html=1;rounded=0;entryX=0;entryY=0;entryDx=0;entryDy=0;" edge="1" parent="WIyWlLk6GJQsqaUBKTNV-1" target="z7gZZNwkyZD44I_29zTt-49">
          <mxGeometry width="50" height="50" relative="1" as="geometry">
            <mxPoint x="100" y="-920" as="sourcePoint" />
            <mxPoint x="200" y="-815" as="targetPoint" />
          </mxGeometry>
        </mxCell>
        <mxCell id="z7gZZNwkyZD44I_29zTt-51" value="" style="endArrow=none;html=1;rounded=0;entryX=1.009;entryY=0.392;entryDx=0;entryDy=0;exitX=0;exitY=0.3333333333333333;exitDx=0;exitDy=0;exitPerimeter=0;entryPerimeter=0;" edge="1" parent="WIyWlLk6GJQsqaUBKTNV-1" source="z7gZZNwkyZD44I_29zTt-22" target="z7gZZNwkyZD44I_29zTt-49">
          <mxGeometry width="50" height="50" relative="1" as="geometry">
            <mxPoint x="110" y="-910" as="sourcePoint" />
            <mxPoint x="186" y="-750" as="targetPoint" />
          </mxGeometry>
        </mxCell>
      </root>
    </mxGraphModel>
  </diagram>
</mxfile>
